<svg xmlns="http://www.w3.org/2000/svg" width="684.54" height="676.938" viewBox="0 0 684.54 676.938">
  <g id="Group_14433" data-name="Group 14433" transform="translate(-654 -13671.497)">
    <g id="Ellipse_67" data-name="Ellipse 67" transform="translate(677 13685.578)" fill="#fff" stroke="#707070" stroke-width="1" stroke-dasharray="121">
      <circle cx="321.5" cy="321.5" r="321.5" stroke="none"/>
      <circle cx="321.5" cy="321.5" r="321" fill="none"/>
    </g>
    <text id="Ideation" transform="translate(1163 13869.578)" font-size="20" font-family="Gilroy-SemiBold, Gilroy" font-weight="600"><tspan x="0" y="0">Ideation</tspan></text>
    <text id="Designing" transform="translate(1168 14087.578)" font-size="20" font-family="Gilroy-SemiBold, Gilroy" font-weight="600"><tspan x="0" y="0">Designing</tspan></text>
    <text id="Development" transform="translate(1092 14226.578)" font-size="20" font-family="Gilroy-SemiBold, Gilroy" font-weight="600"><tspan x="0" y="0">Development</tspan></text>
    <text id="Data_Security" data-name="Data Security" transform="translate(858 14260.578)" font-size="20" font-family="Gilroy-SemiBold, Gilroy" font-weight="600"><tspan x="0" y="0">Data Security</tspan></text>
    <text id="Deployment" transform="translate(732 13957.578)" font-size="20" font-family="Gilroy-SemiBold, Gilroy" font-weight="600"><tspan x="0" y="0">Deployment</tspan></text>
    <text id="Maintenance_and_Support" data-name="Maintenance and 
Support" transform="translate(782 13808.578)" font-size="20" font-family="Gilroy-SemiBold, Gilroy" font-weight="600"><tspan x="0" y="0">Maintenance and </tspan><tspan x="0" y="21">Support</tspan></text>
    <text id="Market_and_User_Research" data-name="Market and User 
Research" transform="translate(998.5 13763.578)" font-size="20" font-family="Gilroy-SemiBold, Gilroy" font-weight="600"><tspan x="0" y="0">Market and User </tspan><tspan x="0" y="21">Research</tspan></text>
    <text id="API_Integration" data-name="API 
Integration" transform="translate(777 14163.578)" font-size="20" font-family="Gilroy-SemiBold, Gilroy" font-weight="600"><tspan x="0" y="0">API </tspan><tspan x="0" y="21">Integration</tspan></text>
    <path id="Icon_ionic-md-arrow-dropdown" data-name="Icon ionic-md-arrow-dropdown" d="M9,13.5,27.437,31.937,45.874,13.5Z" transform="translate(1030.862 13714.33) rotate(-80)"/>
    <path id="Icon_ionic-md-arrow-dropdown-2" data-name="Icon ionic-md-arrow-dropdown" d="M9,13.5,27.437,31.937,45.874,13.5Z" transform="matrix(0.829, -0.559, 0.559, 0.829, 1221.83, 13812.764)"/>
    <path id="Icon_ionic-md-arrow-dropdown-3" data-name="Icon ionic-md-arrow-dropdown" d="M9,13.5,27.437,31.937,45.874,13.5Z" transform="translate(1294.991 14008.939) rotate(8)"/>
    <path id="Icon_ionic-md-arrow-dropdown-4" data-name="Icon ionic-md-arrow-dropdown" d="M9,13.5,27.437,31.937,45.874,13.5Z" transform="matrix(0.574, 0.819, -0.819, 0.574, 1206.408, 14219.748)"/>
    <path id="Icon_ionic-md-arrow-dropdown-5" data-name="Icon ionic-md-arrow-dropdown" d="M9,13.5,27.437,31.937,45.874,13.5Z" transform="translate(1010.072 14305.98) rotate(101)"/>
    <path id="Icon_ionic-md-arrow-dropdown-6" data-name="Icon ionic-md-arrow-dropdown" d="M9,13.5,27.437,31.937,45.874,13.5Z" transform="matrix(-0.799, 0.602, -0.602, -0.799, 797.151, 14226.211)"/>
    <path id="Icon_ionic-md-arrow-dropdown-7" data-name="Icon ionic-md-arrow-dropdown" d="M9,13.5,27.437,31.937,45.874,13.5Z" transform="translate(703.21 14035.893) rotate(-177)"/>
    <g id="Group_14419" data-name="Group 14419">
      <g id="Ellipse_75" data-name="Ellipse 75" transform="translate(778 13718.578)" fill="#26d8a8" stroke="#1f9675" stroke-width="5">
        <circle cx="30" cy="30" r="30" stroke="none"/>
        <circle cx="30" cy="30" r="27.5" fill="none"/>
      </g>
      <g id="headphones" transform="translate(762.266 13731.814)">
        <g id="Group_13338" data-name="Group 13338" transform="translate(34.929 13.752)">
          <g id="Group_13337" data-name="Group 13337">
            <path id="Path_12919" data-name="Path 12919" d="M93.947,210A2.95,2.95,0,0,0,91,212.947v7.989a2.947,2.947,0,1,0,5.894,0v-7.989A2.95,2.95,0,0,0,93.947,210Z" transform="translate(-91 -210)" fill="#fff"/>
          </g>
        </g>
        <g id="Group_13340" data-name="Group 13340" transform="translate(31 15.871)">
          <g id="Group_13339" data-name="Group 13339">
            <path id="Path_12920" data-name="Path 12920" d="M32.965,243.193a4.873,4.873,0,0,1,.084-.827A2.941,2.941,0,0,0,31,245.158v4.06a2.941,2.941,0,0,0,2.048,2.792,4.873,4.873,0,0,1-.084-.827Z" transform="translate(-31 -242.366)" fill="#fff"/>
          </g>
        </g>
        <g id="Group_13342" data-name="Group 13342" transform="translate(42.787 13.752)">
          <g id="Group_13341" data-name="Group 13341">
            <path id="Path_12921" data-name="Path 12921" d="M221.8,210a2.95,2.95,0,0,0-2.947,2.947v7.989a2.95,2.95,0,0,0,2.947,2.947,2.907,2.907,0,0,0,.844-.138,2.941,2.941,0,0,1-2.809,2.1h-3.128a2.947,2.947,0,1,0,0,1.965h3.128a4.917,4.917,0,0,0,4.911-4.911v-9.954A2.95,2.95,0,0,0,221.8,210Z" transform="translate(-211 -210)" fill="#fff"/>
          </g>
        </g>
        <g id="Group_13344" data-name="Group 13344" transform="translate(58.42 15.871)">
          <g id="Group_13343" data-name="Group 13343">
            <path id="Path_12922" data-name="Path 12922" d="M449.722,242.366a4.874,4.874,0,0,1,.084.827v7.989a4.874,4.874,0,0,1-.084.827,2.941,2.941,0,0,0,2.048-2.792v-4.06A2.941,2.941,0,0,0,449.722,242.366Z" transform="translate(-449.722 -242.366)" fill="#fff"/>
          </g>
        </g>
        <g id="Group_13346" data-name="Group 13346" transform="translate(31)">
          <g id="Group_13345" data-name="Group 13345">
            <path id="Path_12923" data-name="Path 12923" d="M45.734,0A14.75,14.75,0,0,0,31,14.734v.025a4.864,4.864,0,0,1,2.01-.912,12.754,12.754,0,0,1,25.449,0,4.865,4.865,0,0,1,2.01.912v-.025A14.75,14.75,0,0,0,45.734,0Z" transform="translate(-31)" fill="#fff"/>
          </g>
        </g>
      </g>
    </g>
    <g id="Group_14420" data-name="Group 14420">
      <g id="Ellipse_68" data-name="Ellipse 68" transform="translate(1086 13677.578)" fill="#26d8a8" stroke="#1f9675" stroke-width="5">
        <circle cx="30" cy="30" r="30" stroke="none"/>
        <circle cx="30" cy="30" r="27.5" fill="none"/>
      </g>
      <g id="research_1_" data-name="research (1)" transform="translate(1103.016 13694.239)">
        <path id="Path_12924" data-name="Path 12924" d="M9.809,59.866a2.3,2.3,0,0,0-2.182-1.573H4.035a2.424,2.424,0,0,1-2.421-2.421V40H.807A.807.807,0,0,0,0,40.807V59.1a.807.807,0,0,0,.807.807H9.823l-.015-.041Z" transform="translate(0 -37.848)" fill="#fff"/>
        <path id="Path_12925" data-name="Path 12925" d="M68.07,1.394A5.52,5.52,0,0,0,64.4,0H60.807A.807.807,0,0,0,60,.807V18.024a.807.807,0,0,0,.807.807H64.4a3.908,3.908,0,0,1,3.672,2.56Z" transform="translate(-56.772)" fill="#fff"/>
        <path id="Path_12926" data-name="Path 12926" d="M264.192,269.345a5.111,5.111,0,1,1,3.614-1.5A5.078,5.078,0,0,1,264.192,269.345Z" transform="translate(-245.142 -245.184)" fill="#fff"/>
        <path id="Path_12927" data-name="Path 12927" d="M421.614,52.586V40.807a.807.807,0,0,0-.807-.807H420V51.182a6.762,6.762,0,0,1,1.209.96Q421.423,52.357,421.614,52.586Z" transform="translate(-397.403 -37.848)" fill="#fff"/>
        <path id="Path_12928" data-name="Path 12928" d="M246.138,12.328a6.762,6.762,0,0,1,1.933.28V.807A.807.807,0,0,0,247.263,0h-3.592A5.52,5.52,0,0,0,240,1.394v14.9a6.735,6.735,0,0,1,6.138-3.966Z" transform="translate(-227.087)" fill="#fff"/>
        <path id="Path_12929" data-name="Path 12929" d="M418.93,416.268l-2.047-2.047a6.792,6.792,0,0,1-2.663,2.663l2.047,2.047a1.883,1.883,0,0,0,2.663-2.663Z" transform="translate(-391.934 -391.935)" fill="#fff"/>
      </g>
    </g>
    <g id="Group_14413" data-name="Group 14413">
      <g id="Ellipse_69" data-name="Ellipse 69" transform="translate(1253 13832.578)" fill="#ecb74b" stroke="#b38a39" stroke-width="5">
        <circle cx="30" cy="30" r="30" stroke="none"/>
        <circle cx="30" cy="30" r="27.5" fill="none"/>
      </g>
      <g id="idea_3_" data-name="idea (3)" transform="translate(1267.321 13846.899)">
        <g id="Group_13348" data-name="Group 13348" transform="translate(4.367 4.367)">
          <g id="Group_13347" data-name="Group 13347">
            <path id="Path_12930" data-name="Path 12930" d="M75.464,74.165l-2.6-2.6a.919.919,0,0,0-1.3,1.3l2.6,2.6a.919.919,0,0,0,1.3-1.3Z" transform="translate(-71.298 -71.298)" fill="#fff"/>
          </g>
        </g>
        <g id="Group_13350" data-name="Group 13350" transform="translate(0 14.761)">
          <g id="Group_13349" data-name="Group 13349">
            <path id="Path_12931" data-name="Path 12931" d="M4.655,241H.919a.919.919,0,1,0,0,1.837H4.655a.919.919,0,1,0,0-1.837Z" transform="translate(0 -241)" fill="#fff"/>
          </g>
        </g>
        <g id="Group_13352" data-name="Group 13352" transform="translate(25.785 14.761)">
          <g id="Group_13351" data-name="Group 13351">
            <path id="Path_12932" data-name="Path 12932" d="M425.655,241h-3.736a.919.919,0,0,0,0,1.837h3.736a.919.919,0,0,0,0-1.837Z" transform="translate(-421 -241)" fill="#fff"/>
          </g>
        </g>
        <g id="Group_13354" data-name="Group 13354" transform="translate(22.556 4.367)">
          <g id="Group_13353" data-name="Group 13353">
            <path id="Path_12933" data-name="Path 12933" d="M372.447,71.567a.918.918,0,0,0-1.3,0l-2.6,2.6a.919.919,0,0,0,1.3,1.3l2.6-2.6A.918.918,0,0,0,372.447,71.567Z" transform="translate(-368.281 -71.298)" fill="#fff"/>
          </g>
        </g>
        <g id="Group_13356" data-name="Group 13356" transform="translate(14.761)">
          <g id="Group_13355" data-name="Group 13355">
            <path id="Path_12934" data-name="Path 12934" d="M241.919,0A.918.918,0,0,0,241,.919V4.655a.919.919,0,1,0,1.837,0V.919A.918.918,0,0,0,241.919,0Z" transform="translate(-241)" fill="#fff"/>
          </g>
        </g>
        <g id="Group_13358" data-name="Group 13358" transform="translate(7.415 7.412)">
          <g id="Group_13357" data-name="Group 13357">
            <path id="Path_12935" data-name="Path 12935" d="M134.48,122.8a8.3,8.3,0,0,0-7.129-1.543,8.145,8.145,0,0,0-6.027,5.935,8.311,8.311,0,0,0,2.223,7.993,4.514,4.514,0,0,1,1.194,3.148v.2a.91.91,0,0,0,.919.919h7.35a.91.91,0,0,0,.919-.919v-.2a4.561,4.561,0,0,1,1.268-3.2,8.3,8.3,0,0,0-.717-12.329Zm-5.145,3.73a2.687,2.687,0,0,0-2.659,1.984.919.919,0,1,1-1.784-.441,4.537,4.537,0,0,1,4.443-3.38.919.919,0,0,1,0,1.837Z" transform="translate(-121.072 -121.024)" fill="#fff"/>
          </g>
        </g>
        <g id="Group_13360" data-name="Group 13360" transform="translate(12.004 27.684)">
          <g id="Group_13359" data-name="Group 13359">
            <path id="Path_12936" data-name="Path 12936" d="M196,452v.919a2.759,2.759,0,0,0,2.756,2.756h1.837a2.759,2.759,0,0,0,2.756-2.756V452Z" transform="translate(-196 -452)" fill="#fff"/>
          </g>
        </g>
      </g>
    </g>
    <g id="Group_14414" data-name="Group 14414">
      <g id="Ellipse_70" data-name="Ellipse 70" transform="translate(1273 14062.578)" fill="#26d8a8" stroke="#1f9675" stroke-width="5">
        <circle cx="30" cy="30" r="30" stroke="none"/>
        <circle cx="30" cy="30" r="27.5" fill="none"/>
      </g>
      <g id="vector_1_" data-name="vector (1)" transform="translate(1289.818 14079.396)">
        <g id="Group_13306" data-name="Group 13306">
          <g id="Group_13305" data-name="Group 13305">
            <path id="Path_12848" data-name="Path 12848" d="M25.591,0H22.45a.772.772,0,0,0-.772.772v.772H15.356a2.3,2.3,0,0,0-4.35,0H4.686V.772A.772.772,0,0,0,3.913,0H.772A.772.772,0,0,0,0,.772V3.862a.772.772,0,0,0,.772.772H3.913a.772.772,0,0,0,.772-.772V3.079H7.858A10.076,10.076,0,0,0,3.2,10.989a2.31,2.31,0,1,0,1.542.035,8.476,8.476,0,0,1,6.391-7.651,2.3,2.3,0,0,0,4.1,0,8.476,8.476,0,0,1,6.391,7.651,2.324,2.324,0,1,0,1.542-.035,10.057,10.057,0,0,0-4.659-7.9h3.172v.772a.772.772,0,0,0,.772.772h3.141a.772.772,0,0,0,.772-.772V.772A.772.772,0,0,0,25.591,0Z" fill="#fff"/>
          </g>
        </g>
        <g id="Group_13308" data-name="Group 13308" transform="translate(7.893 23.222)">
          <g id="Group_13307" data-name="Group 13307">
            <path id="Path_12849" data-name="Path 12849" d="M163.837,453.183A3.141,3.141,0,0,0,160.9,451h-4.634a3.141,3.141,0,0,0-2.938,2.183.761.761,0,0,0,.751.958h9.007A.761.761,0,0,0,163.837,453.183Z" transform="translate(-153.294 -451)" fill="#fff"/>
          </g>
        </g>
        <g id="Group_13310" data-name="Group 13310" transform="translate(6.23 6.769)">
          <g id="Group_13309" data-name="Group 13309">
            <path id="Path_12850" data-name="Path 12850" d="M134.773,140.533l-6.049-9.074v7.327a2.317,2.317,0,1,1-1.545,0v-7.327l-6.049,9.074a.772.772,0,0,0,.1.975,9.753,9.753,0,0,1,2.674,5.2,4.6,4.6,0,0,1,1.734-.344h4.634a4.6,4.6,0,0,1,1.734.343,9.752,9.752,0,0,1,2.674-5.2A.772.772,0,0,0,134.773,140.533Z" transform="translate(-121 -131.459)" fill="#fff"/>
          </g>
        </g>
        <g id="Group_13312" data-name="Group 13312" transform="translate(12.409 15.499)">
          <g id="Group_13311" data-name="Group 13311">
            <path id="Path_12851" data-name="Path 12851" d="M241.772,301a.772.772,0,1,0,.772.772A.773.773,0,0,0,241.772,301Z" transform="translate(-241 -301)" fill="#fff"/>
          </g>
        </g>
      </g>
    </g>
    <g id="Group_14415" data-name="Group 14415">
      <g id="Ellipse_71" data-name="Ellipse 71" transform="translate(1124 14253.578)" fill="#ecb74b" stroke="#b38a39" stroke-width="5">
        <circle cx="30" cy="30" r="30" stroke="none"/>
        <circle cx="30" cy="30" r="27.5" fill="none"/>
      </g>
      <g id="coding_4_" data-name="coding (4)" transform="translate(1140.685 14262.442)">
        <path id="Path_12937" data-name="Path 12937" d="M127.991,440.1h-1.924V438.25H116.7V440.1H114.78a.78.78,0,0,0,0,1.56h13.211a.78.78,0,1,0,0-1.56Z" transform="translate(-108.071 -407.635)" fill="#fff"/>
        <path id="Path_12938" data-name="Path 12938" d="M0,349.81a1.562,1.562,0,0,0,1.56,1.56H25.07a1.562,1.562,0,0,0,1.56-1.56v-1.56H0Z" transform="translate(0 -322.316)" fill="#fff"/>
        <path id="Path_12939" data-name="Path 12939" d="M25.07,8.25H1.56A1.562,1.562,0,0,0,0,9.81V24.374H26.63V9.81A1.562,1.562,0,0,0,25.07,8.25Zm-6.552,7.022a.78.78,0,0,1-.78.78H9.1a.78.78,0,0,1,0-1.56h8.635A.78.78,0,0,1,18.517,15.272Zm-11.5-3.9H10.3a.78.78,0,0,1,0,1.56H7.022a.78.78,0,1,1,0-1.56ZM3.9,22.293a.78.78,0,1,1,.78-.78A.782.782,0,0,1,3.9,22.293Zm0-3.121a.78.78,0,1,1,.78-.78A.782.782,0,0,1,3.9,19.173Zm0-3.121a.78.78,0,1,1,.78-.78A.782.782,0,0,1,3.9,16.052Zm0-3.121a.78.78,0,1,1,.78-.78A.782.782,0,0,1,3.9,12.931Zm6.4,9.362H7.022a.78.78,0,1,1,0-1.56H10.3a.78.78,0,0,1,0,1.56Zm2.445-3.121H9.1a.78.78,0,1,1,0-1.56h3.641a.78.78,0,0,1,0,1.56Zm5.383,0h-2.7a.78.78,0,0,1,0-1.56h2.7a.78.78,0,0,1,0,1.56Zm4.6,0H20.857a.78.78,0,0,1,0-1.56h1.872a.78.78,0,0,1,0,1.56Zm0-3.121H20.857a.78.78,0,0,1,0-1.56h1.872a.78.78,0,0,1,0,1.56Z" transform="translate(0)" fill="#fff"/>
      </g>
    </g>
    <g id="Group_14416" data-name="Group 14416">
      <g id="Ellipse_72" data-name="Ellipse 72" transform="translate(889 14283.578)" fill="#26d8a8" stroke="#1f9675" stroke-width="5">
        <circle cx="30" cy="30" r="30" stroke="none"/>
        <circle cx="30" cy="30" r="27.5" fill="none"/>
      </g>
      <g id="web-security" transform="translate(907.045 14301.604)">
        <path id="Path_12940" data-name="Path 12940" d="M23.209.021H.7a.7.7,0,0,0-.7.7v3.5H23.909V.721a.7.7,0,0,0-.7-.7Zm-7.051,2.8a.7.7,0,1,1,.7-.7A.7.7,0,0,1,16.158,2.821Zm2.8,0a.7.7,0,1,1,.7-.7A.7.7,0,0,1,18.959,2.821Zm2.8,0a.7.7,0,1,1,.7-.7A.7.7,0,0,1,21.761,2.821Z" transform="translate(0)" fill="#fff"/>
        <path id="Path_12941" data-name="Path 12941" d="M0,133.723a.7.7,0,0,0,.7.7H5.5a7.6,7.6,0,0,1-.475-2.647v-4.6a2.105,2.105,0,0,1,1.4-1.98l4.833-1.716a2.1,2.1,0,0,1,1.406,0l4.833,1.716a2.105,2.105,0,0,1,1.4,1.98v4.6a7.6,7.6,0,0,1-.475,2.647h4.795a.7.7,0,0,0,.7-.7V119.66H0Z" transform="translate(0 -114.052)" fill="#fff"/>
        <path id="Path_12942" data-name="Path 12942" d="M148.1,230.729l-4.833-1.716a.7.7,0,0,0-.469,0l-4.833,1.716a.7.7,0,0,0-.466.66v4.6a6.264,6.264,0,0,0,5.443,6.2.7.7,0,0,0,.18,0,6.264,6.264,0,0,0,5.444-6.2v-4.6A.7.7,0,0,0,148.1,230.729Zm-2.7,4.507-1.961,1.961a.7.7,0,0,1-.991,0l-1.051-1.051a.7.7,0,0,1,.991-.991l.555.555,1.466-1.466a.7.7,0,1,1,.991.991Z" transform="translate(-131.08 -218.26)" fill="#fff"/>
      </g>
    </g>
    <g id="Group_14417" data-name="Group 14417">
      <g id="Ellipse_73" data-name="Ellipse 73" transform="translate(702 14147.578)" fill="#ecb74b" stroke="#b38a39" stroke-width="5">
        <circle cx="30" cy="30" r="30" stroke="none"/>
        <circle cx="30" cy="30" r="27.5" fill="none"/>
      </g>
      <g id="api_2_" data-name="api (2)" transform="translate(718.625 14164.203)">
        <path id="Path_12943" data-name="Path 12943" d="M146.06,140a6.06,6.06,0,1,0,6.06,6.06A6.067,6.067,0,0,0,146.06,140Zm-3.148,3.128h4.526l-.239-.264a.784.784,0,1,1,1.161-1.053l1.428,1.574a.784.784,0,0,1,0,1.053l-1.428,1.574a.784.784,0,1,1-1.161-1.053l.239-.264h-4.526a.784.784,0,0,1,0-1.567Zm6.3,5.864h-4.526l.239.264a.784.784,0,0,1-1.161,1.053l-1.428-1.574a.784.784,0,0,1,0-1.053l1.428-1.574a.784.784,0,1,1,1.161,1.053l-.239.264h4.526a.784.784,0,0,1,0,1.567Z" transform="translate(-132.686 -132.686)" fill="#fff"/>
        <path id="Path_12944" data-name="Path 12944" d="M25.965,10.445H24.216a11.11,11.11,0,0,0-1.1-2.664l1.238-1.238a.784.784,0,0,0,0-1.108L21.314,2.4a.784.784,0,0,0-1.108,0L18.968,3.637a11.11,11.11,0,0,0-2.664-1.1V.784A.784.784,0,0,0,15.521,0H11.228a.784.784,0,0,0-.784.784V2.533a11.11,11.11,0,0,0-2.664,1.1L6.543,2.4a.784.784,0,0,0-1.108,0L2.4,5.435a.784.784,0,0,0,0,1.108L3.637,7.781a11.11,11.11,0,0,0-1.1,2.664H.784A.784.784,0,0,0,0,11.228v4.292a.784.784,0,0,0,.784.784H2.533a11.11,11.11,0,0,0,1.1,2.664L2.4,20.206a.784.784,0,0,0,0,1.108l3.035,3.035a.784.784,0,0,0,1.108,0l1.238-1.238a11.109,11.109,0,0,0,2.664,1.1v1.749a.784.784,0,0,0,.784.784h4.292a.784.784,0,0,0,.784-.784V24.216a11.105,11.105,0,0,0,2.664-1.1l1.238,1.238a.784.784,0,0,0,1.108,0l3.035-3.035a.784.784,0,0,0,0-1.108l-1.238-1.238a11.109,11.109,0,0,0,1.1-2.664h1.749a.784.784,0,0,0,.784-.784V11.228a.784.784,0,0,0-.784-.784ZM13.375,21A7.628,7.628,0,1,1,21,13.375,7.636,7.636,0,0,1,13.375,21Z" fill="#fff"/>
      </g>
    </g>
    <g id="Group_14418" data-name="Group 14418">
      <g id="Ellipse_74" data-name="Ellipse 74" transform="translate(654 13920.578)" fill="#26d8a8" stroke="#1f9675" stroke-width="5">
        <circle cx="30" cy="30" r="30" stroke="none"/>
        <circle cx="30" cy="30" r="27.5" fill="none"/>
      </g>
      <g id="file-upload" transform="translate(664.382 13934.421)">
        <path id="Path_12945" data-name="Path 12945" d="M18,45.011v5.056a1.011,1.011,0,0,0,1.011,1.011H29.124a1.011,1.011,0,0,0,1.011-1.011V45.011A1.011,1.011,0,0,0,29.124,44H19.011A1.011,1.011,0,0,0,18,45.011Zm8.315,1.938a.506.506,0,1,1,.561-.841l1.517,1.011a.506.506,0,0,1,0,.841l-1.517,1.011a.506.506,0,1,1-.561-.841l.887-.591ZM23.083,48.9l1.011-3.034a.506.506,0,1,1,.961.32l-1.011,3.034a.506.506,0,1,1-.961-.32Zm-3.341-1.778,1.517-1.011a.506.506,0,0,1,.561.841l-.887.591.886.591a.506.506,0,1,1-.561.841L19.74,47.96a.506.506,0,0,1,0-.841Z" transform="translate(-4.449 -20.764)" fill="#fff"/>
        <path id="Path_12946" data-name="Path 12946" d="M28.6,29.711v-8.09a.506.506,0,0,1,.506-.506h.981l-3-3.973-2.98,3.973h.957a.506.506,0,0,1,.506.506v8.09Z" transform="translate(-7.468 -7.486)" fill="#fff"/>
        <path id="Path_12947" data-name="Path 12947" d="M17.09,23.146V18.6h-.6a.914.914,0,0,1-.817-.511.969.969,0,0,1,.086-1.019L18.891,12.9a.927.927,0,0,1,1.455,0l3.125,4.167a.969.969,0,0,1,.091,1.021.914.914,0,0,1-.819.511h-.6v4.551h7.079a1.011,1.011,0,0,0,1.011-1.011V10H9V22.135a1.011,1.011,0,0,0,1.011,1.011Z" transform="translate(0 -3.955)" fill="#fff"/>
        <path id="Path_12948" data-name="Path 12948" d="M10.011,2A1.011,1.011,0,0,0,9,3.011V5.034H30.236V3.011A1.011,1.011,0,0,0,29.225,2Zm1.011,2.023h-.506a.506.506,0,1,1,0-1.011h.506a.506.506,0,0,1,0,1.011Zm2.528,0h-.506a.506.506,0,0,1,0-1.011h.506a.506.506,0,0,1,0,1.011Zm2.528,0h-.506a.506.506,0,0,1,0-1.011h.506a.506.506,0,1,1,0,1.011Zm12.641,0H26.7a.506.506,0,0,1,0-1.011h2.023a.506.506,0,0,1,0,1.011Z" fill="#fff"/>
      </g>
    </g>
  </g>
</svg>
